<?xml version="1.0" encoding="UTF-8" standalone="no"?>
<!-- Created with Inkscape (http://www.inkscape.org/) -->

<svg
   xmlns:dc="http://purl.org/dc/elements/1.1/"
   xmlns:cc="http://creativecommons.org/ns#"
   xmlns:rdf="http://www.w3.org/1999/02/22-rdf-syntax-ns#"
   xmlns:svg="http://www.w3.org/2000/svg"
   xmlns="http://www.w3.org/2000/svg"
   xmlns:sodipodi="http://sodipodi.sourceforge.net/DTD/sodipodi-0.dtd"
   xmlns:inkscape="http://www.inkscape.org/namespaces/inkscape"
   width="634.331040194"
   height="157.646392283"
   viewBox="0 0 100 24.852386"
   version="1.1"
   id="svg8"
   inkscape:version="0.92.3 (2405546, 2018-03-11)"
   sodipodi:docname="A.svg">
  <defs
     id="defs2" />
  <sodipodi:namedview
     id="base"
     pagecolor="#ffffff"
     bordercolor="#666666"
     borderopacity="1.0"
     inkscape:pageopacity="0.0"
     inkscape:pageshadow="2"
     inkscape:zoom="0.30656934"
     inkscape:cx="749.95238"
     inkscape:cy="-189.92856"
     inkscape:document-units="px"
     inkscape:current-layer="layer1"
     showgrid="false"
     units="px"
     fit-margin-top="0"
     fit-margin-left="0"
     fit-margin-right="0"
     fit-margin-bottom="0" />
  <metadata
     id="metadata5">
    <rdf:RDF>
      <cc:Work
         rdf:about="">
        <dc:format>image/svg+xml</dc:format>
        <dc:type
           rdf:resource="http://purl.org/dc/dcmitype/StillImage" />
        <dc:title></dc:title>
      </cc:Work>
    </rdf:RDF>
  </metadata>
  <g
     inkscape:label="Layer 1"
     inkscape:groupmode="layer"
     id="layer1"
     transform="translate(34.995239,-12.406724)">
    <g
       transform="matrix(0.41523067,0,0,0.41523067,-34.995238,12.34527)"
       id="g2236"
       style="fill:#000000;fill-opacity:1;fill-rule:evenodd;stroke:none;stroke-width:1;stroke-linecap:square;stroke-linejoin:bevel">
      <path
         d="m 75.663,47.477 2.929,-6.846 c 3.207,2.375 7.39,3.632 11.574,3.632 3.068,0 5.02,-1.187 5.02,-3.003 -0.07,-5.03 -18.477,-1.118 -18.617,-13.764 -0.07,-6.427 5.648,-11.387 13.737,-11.387 4.81,0 9.622,1.188 13.038,3.913 l -2.737,6.992 c -3.143,-2.021 -7.025,-3.43 -10.72,-3.43 -2.51,0 -4.184,1.187 -4.184,2.725 0.07,4.96 18.618,2.235 18.827,14.322 0,6.567 -5.579,11.178 -13.528,11.178 -5.856,0 -11.225,-1.397 -15.34,-4.332 m 116.629,-9.325 c -1.505,2.6746 -4.336,4.3298 -7.405,4.33 -4.698,0 -8.506,-3.816 -8.506,-8.523 0,-4.707 3.808,-8.523 8.506,-8.523 3.069,2e-4 5.9,1.6554 7.405,4.33 l 8.143,-4.52 c -3.05,-5.451 -8.868,-9.137 -15.548,-9.137 -9.839,0 -17.815,7.991 -17.815,17.85 0,9.858 7.976,17.85 17.815,17.85 6.68,0 12.498,-3.686 15.548,-9.137 l -8.143,-4.52 M 109.814,51.11 h 10.18 V 1.25 h -10.179 l -0.001,49.86 M 205.575,1.25 v 49.86 h 10.18 V 36.172 L 227.818,51.11 H 240.83 L 225.49,33.364 239.714,16.805 H 227.26 L 215.755,30.572 V 1.25 h -10.18 m -54.218,15.557 v 4.053 c -1.673,-2.795 -5.787,-4.751 -10.11,-4.751 -8.925,0 -15.967,7.895 -15.967,17.815 0,9.92 7.042,17.885 15.967,17.885 4.323,0 8.437,-1.956 10.11,-4.751 v 4.052 h 10.18 V 16.807 h -10.18 m 0,21.414 c -1.464,2.445 -4.532,4.26 -7.948,4.26 -4.699,0 -8.507,-3.815 -8.507,-8.522 0,-4.707 3.808,-8.523 8.507,-8.523 3.416,0 6.484,1.886 7.948,4.4 v 8.385 0"
         id="path2234"
         inkscape:connector-curvature="0"
         style="vector-effect:none;fill-rule:nonzero" />
    </g>
    <g
       transform="matrix(0.41523067,0,0,0.41523067,-34.995238,12.34527)"
       id="g2242"
       style="fill:#36c5f0;fill-opacity:1;fill-rule:evenodd;stroke:none;stroke-width:1;stroke-linecap:square;stroke-linejoin:bevel">
      <path
         d="m 21.902,0.148 c -3.299,0 -5.973,2.68 -5.973,5.985 -0.0033,3.30211 2.6709,5.9817 5.973,5.985 h 5.974 V 6.133 C 27.8788,2.83073 25.2043,0.151314 21.902,0.148 m 0,15.96 H 5.973 C 2.674,16.108 0,18.788 0,22.094 c 0,3.305 2.674,5.985 5.973,5.985 h 15.93 c 3.298,0 5.973,-2.68 5.973,-5.985 0,-3.306 -2.675,-5.986 -5.974,-5.986"
         id="path2240"
         inkscape:connector-curvature="0"
         style="vector-effect:none;fill-rule:nonzero" />
    </g>
    <g
       transform="matrix(0.41523067,0,0,0.41523067,-34.995238,12.34527)"
       id="g2248"
       style="fill:#2eb67d;fill-opacity:1;fill-rule:evenodd;stroke:none;stroke-width:1;stroke-linecap:square;stroke-linejoin:bevel">
      <path
         d="m 59.734,22.094 c 0,-3.306 -2.675,-5.986 -5.974,-5.986 -3.299,0 -5.973,2.68 -5.973,5.986 v 5.985 h 5.973 c 3.3023,-0.0033 5.9768,-2.6827 5.974,-5.985 m -15.929,0 V 6.133 c 0.0028,-3.30227 -2.6717,-5.981686 -5.974,-5.985 -3.299,0 -5.973,2.68 -5.973,5.985 v 15.96 c 0,3.307 2.674,5.987 5.973,5.987 3.3023,-0.0033 5.9768,-2.6827 5.974,-5.985"
         id="path2246"
         inkscape:connector-curvature="0"
         style="vector-effect:none;fill-rule:nonzero" />
    </g>
    <g
       transform="matrix(0.41523067,0,0,0.41523067,-34.995238,12.34527)"
       id="g2254"
       style="fill:#ecb22e;fill-opacity:1;fill-rule:evenodd;stroke:none;stroke-width:1;stroke-linecap:square;stroke-linejoin:bevel">
      <path
         d="m 37.831,60 c 3.3023,-0.0033 5.9768,-2.6827 5.974,-5.985 0.0028,-3.3023 -2.6717,-5.9817 -5.974,-5.985 h -5.973 v 5.985 c 0,3.305 2.674,5.985 5.973,5.985 m 0,-15.96 h 15.93 c 3.298,0 5.973,-2.68 5.973,-5.986 0.0028,-3.3023 -2.6717,-5.9817 -5.974,-5.985 H 37.831 c -3.299,0 -5.973,2.68 -5.973,5.985 -0.0033,3.3021 2.6709,5.9817 5.973,5.985"
         id="path2252"
         inkscape:connector-curvature="0"
         style="vector-effect:none;fill-rule:nonzero" />
    </g>
    <g
       transform="matrix(0.41523067,0,0,0.41523067,-34.995238,12.34527)"
       id="g2260"
       style="fill:#e01e5a;fill-opacity:1;fill-rule:evenodd;stroke:none;stroke-width:1;stroke-linecap:square;stroke-linejoin:bevel">
      <path
         d="m 0,38.054 c -0.00331572,3.3021 2.67089,5.9817 5.973,5.985 3.30227,-0.0033 5.9768,-2.6827 5.974,-5.985 V 32.069 H 5.973 C 2.674,32.069 0,34.749 0,38.054 m 15.929,0 v 15.96 c 0,3.306 2.674,5.986 5.973,5.986 3.3023,-0.0033 5.9768,-2.6827 5.974,-5.985 V 38.054 c 0.0033,-3.3025 -2.6715,-5.9822 -5.974,-5.985 -3.299,0 -5.973,2.68 -5.973,5.985"
         id="path2258"
         inkscape:connector-curvature="0"
         style="vector-effect:none;fill-rule:nonzero" />
    </g>
  </g>
</svg>
